<svg width="23" height="22" viewBox="0 0 23 22" fill="none" xmlns="http://www.w3.org/2000/svg">
<path d="M10.0824 17.9941H12.0213V16.6709C12.9446 16.5121 13.7386 16.1681 14.4034 15.6388C15.0682 15.1095 15.4006 14.3244 15.4006 13.2834C15.4006 12.5424 15.179 11.8632 14.7358 11.2456C14.2926 10.6281 13.4063 10.09 12.0767 9.63131C10.9688 9.27845 10.2024 8.9697 9.7777 8.70505C9.35298 8.4404 9.14063 8.07872 9.14063 7.62C9.14063 7.16128 9.31144 6.7996 9.65306 6.53495C9.99468 6.27031 10.4886 6.13798 11.1349 6.13798C11.7259 6.13798 12.1875 6.27472 12.5199 6.54818C12.8523 6.82165 13.0923 7.16128 13.2401 7.56707L15.0128 6.87899C14.8097 6.26149 14.4357 5.72337 13.891 5.26465C13.3462 4.80593 12.7415 4.55011 12.0767 4.49718V3.17395H10.1378V4.49718C9.21449 4.69125 8.49432 5.0794 7.97727 5.66162C7.46023 6.24384 7.20171 6.89664 7.20171 7.62C7.20171 8.44922 7.45561 9.11966 7.96342 9.63131C8.47124 10.143 9.26989 10.584 10.3594 10.9545C11.5227 11.3603 12.3306 11.722 12.783 12.0396C13.2354 12.3572 13.4617 12.7718 13.4617 13.2834C13.4617 13.8656 13.2447 14.2935 12.8107 14.567C12.3768 14.8404 11.8551 14.9772 11.2457 14.9772C10.6364 14.9772 10.0962 14.7963 9.62536 14.4346C9.15448 14.0729 8.80824 13.5304 8.58665 12.8071L6.75852 13.4951C7.01705 14.342 7.41868 15.0257 7.96342 15.5461C8.50817 16.0666 9.21449 16.4239 10.0824 16.618V17.9941ZM11.0795 21.1699C9.54688 21.1699 8.10654 20.892 6.75852 20.3362C5.41051 19.7805 4.23793 19.0262 3.24077 18.0735C2.24361 17.1208 1.45419 16.0005 0.872514 14.7125C0.290838 13.4246 0 12.0484 0 10.584C0 9.11966 0.290838 7.7435 0.872514 6.45556C1.45419 5.16762 2.24361 4.04728 3.24077 3.09456C4.23793 2.14183 5.41051 1.38759 6.75852 0.831834C8.10654 0.276078 9.54688 -0.00180054 11.0795 -0.00180054C12.6122 -0.00180054 14.0526 0.276078 15.4006 0.831834C16.7486 1.38759 17.9212 2.14183 18.9183 3.09456C19.9155 4.04728 20.7049 5.16762 21.2866 6.45556C21.8683 7.7435 22.1591 9.11966 22.1591 10.584C22.1591 12.0484 21.8683 13.4246 21.2866 14.7125C20.7049 16.0005 19.9155 17.1208 18.9183 18.0735C17.9212 19.0262 16.7486 19.7805 15.4006 20.3362C14.0526 20.892 12.6122 21.1699 11.0795 21.1699Z" fill="white"/>
</svg>
